<?xml version="1.0" encoding="UTF-8" standalone="no"?>
<!-- Created with Inkscape (http://www.inkscape.org/) -->

<svg
   width="100mm"
   height="100mm"
   viewBox="0 0 100 100"
   version="1.1"
   id="svg5"
   xml:space="preserve"
   inkscape:version="1.2.2 (b0a8486541, 2022-12-01)"
   sodipodi:docname="logo.svg"
   xmlns:inkscape="http://www.inkscape.org/namespaces/inkscape"
   xmlns:sodipodi="http://sodipodi.sourceforge.net/DTD/sodipodi-0.dtd"
   xmlns="http://www.w3.org/2000/svg"
   xmlns:svg="http://www.w3.org/2000/svg"><sodipodi:namedview
     id="namedview7"
     pagecolor="#505050"
     bordercolor="#eeeeee"
     borderopacity="1"
     inkscape:showpageshadow="0"
     inkscape:pageopacity="0"
     inkscape:pagecheckerboard="0"
     inkscape:deskcolor="#505050"
     inkscape:document-units="mm"
     showgrid="false"
     inkscape:zoom="0.74653479"
     inkscape:cx="-6.0278503"
     inkscape:cy="225.70951"
     inkscape:window-width="1920"
     inkscape:window-height="997"
     inkscape:window-x="0"
     inkscape:window-y="552"
     inkscape:window-maximized="1"
     inkscape:current-layer="layer1" /><defs
     id="defs2"><clipPath
       clipPathUnits="userSpaceOnUse"
       id="clipPath416"><path
         style="fill:#ffffff;stroke:#ffffff;stroke-width:1.155;paint-order:stroke fill markers"
         id="path418"
         sodipodi:type="arc"
         sodipodi:cx="250.71526"
         sodipodi:cy="236.306"
         sodipodi:rx="226.8584"
         sodipodi:ry="226.8584"
         sodipodi:start="0.52359878"
         sodipodi:end="5.7595865"
         sodipodi:arc-type="slice"
         d="M 447.18039,349.7352 A 226.8584,226.8584 0 0 1 191.99998,455.43439 226.8584,226.8584 0 0 1 23.856857,236.306 226.8584,226.8584 0 0 1 191.99998,17.177615 226.8584,226.8584 0 0 1 447.18039,122.87679 L 250.71526,236.306 Z" /></clipPath></defs><g
     inkscape:label="Layer 1"
     inkscape:groupmode="layer"
     id="layer1"
     transform="translate(-39.895179,-27.511815)"><g
       id="g442"
       transform="matrix(0.90399594,0,0,0.90399594,4.3409452,13.045781)"><g
         transform="matrix(0.14143723,0,0,0.14143723,101.3807,-79.228407)"
         id="g12642"><path
           id="path3549"
           style="fill:#010101"
           d="m 17.382,1113 c -0.73,-1.4 -1,-8.8 -0.796,-21.8 l 0.308,-19.7 8.25,-22.9 c 4.537,-12.5 8.25,-24 8.25,-25.5 0,-1.6 -0.816,-3.1 -2,-3.9 -1.518,-0.9 -2,-2.3 -2,-5.7 v -4.5 h 148.46 c 112.96,0 149.08,0.3 151.07,1.2 1.44,0.6 3.24,2.4 3.99,3.8 0.75,1.5 4.32,13.1 7.93,25.9 l 6.55,23.1 v 22.1 c 0,24.1 -0.49,26.6 -5.71,28.8 -1.9,0.8 -9.67,1 -24.29,0.9 l -21.5,-0.3 -0.35,-2.5 c -0.19,-1.4 -1.59,-5.2 -3.1,-8.6 -2.98,-6.5 -8.69,-12.1 -15.62,-15.1 -4.99,-2.2 -17.52,-2.2 -22.43,-0.1 -8.74,3.7 -16.9,13.9 -18.51,23 l -0.66,3.8 -58.14,-0.3 -58.13,-0.2 -0.71,-4.2 c -1.55,-9 -8.44,-17.5 -17.72,-21.6 -5.437,-2.4 -15.646,-2.8 -21.39,-0.9 -9.087,3.2 -18.02,13.4 -19.548,22.3 l -0.742,4.4 -20.177,0.3 C 19.168,1115 18.453,1115 17.386,1113 Z m 57.14,-48.7 c 1.064,-1.3 1.372,-6.2 1.372,-22.1 0,-19 -0.129,-20.5 -1.941,-21.8 -1.474,-1.1 -5.586,-1.4 -17.095,-1.4 -13.22,0 -15.358,0.2 -16.754,1.7 -1.854,2.1 -14.71,36.7 -14.71,39.6 0,1.1 0.745,2.8 1.655,3.9 1.509,1.6 3.619,1.8 23.877,1.8 19.452,0 22.394,-0.2 23.596,-1.7 z m 51.048,0 c 1.03,-0.9 1.81,-3 1.8,-4.7 -0.04,-4.4 -10.5,-38.7 -12.12,-39.7 -0.75,-0.5 -7.7,-0.9 -15.451,-0.9 -18.787,0 -17.802,-1.1 -18.225,20.8 -0.347,18 0.075,22.3 2.431,24.6 2.366,2.4 38.925,2.3 41.565,-0.1 z m 51,0 c 1,-0.9 1.82,-2.5 1.82,-3.6 0,-3.5 -10.19,-38.2 -11.75,-40 -1.38,-1.5 -3.7,-1.7 -20.07,-1.7 -24.88,0 -24.83,-0.1 -19.12,19.8 4.93,17.2 7.11,23.6 8.73,25.4 1.35,1.6 3.65,1.8 20.04,1.8 15.83,0 18.78,-0.3 20.35,-1.7 z m 51.4,-0.8 c 1.54,-2.3 1.35,-3.4 -3.99,-22.2 -3.44,-12.2 -6.25,-20.3 -7.29,-21.1 -1.2,-0.9 -6.89,-1.2 -19.92,-1.2 -20.21,0 -21.38,0.3 -21.38,6.2 0,4 8.69,35.5 10.61,38.5 1.41,2.2 1.81,2.3 20.89,2.3 h 19.46 z m 50.22,1.3 c 0.66,-0.7 1.2,-2.7 1.2,-4.6 0,-5.1 -9.8,-38.5 -11.72,-40 -1.19,-0.9 -6.87,-1.2 -19.97,-1.2 -16.97,0 -18.45,0.1 -20.31,2 -1.1,1.1 -2,2.4 -2,3 0,2.4 10.33,37.7 11.62,39.7 1.4,2.2 1.81,2.3 20.71,2.3 13.66,0 19.62,-0.4 20.47,-1.2 z m 50.38,-0.5 c 2.68,-2.4 2.31,-5.6 -2.77,-23.6 -4.68,-16.5 -5.85,-19.6 -7.81,-21 -0.6,-0.4 -9.39,-0.7 -19.52,-0.7 -15.75,0 -18.68,0.2 -20.25,1.6 -1,0.9 -1.83,2.7 -1.83,3.9 0,3.1 9.9,36.6 11.61,39.2 1.41,2.2 1.84,2.3 20.09,2.3 15.95,0 18.91,-0.3 20.48,-1.7 z" /><ellipse
           style="color:#000000;clip-rule:nonzero;display:inline;overflow:visible;visibility:visible;opacity:1;isolation:auto;mix-blend-mode:normal;color-interpolation:sRGB;color-interpolation-filters:linearRGB;solid-color:#000000;solid-opacity:1;fill:#000000;fill-opacity:1;fill-rule:nonzero;stroke:#000000;stroke-width:1.085;stroke-linecap:round;stroke-linejoin:miter;stroke-miterlimit:4;stroke-dasharray:none;stroke-dashoffset:0;stroke-opacity:1;color-rendering:auto;image-rendering:auto;shape-rendering:auto;text-rendering:auto;enable-background:accumulate"
           id="path12623"
           cy="1115.9847"
           cx="88.674202"
           rx="20.293362"
           ry="20.766291" /><ellipse
           style="color:#000000;clip-rule:nonzero;display:inline;overflow:visible;visibility:visible;opacity:1;isolation:auto;mix-blend-mode:normal;color-interpolation:sRGB;color-interpolation-filters:linearRGB;solid-color:#000000;solid-opacity:1;fill:#000000;fill-opacity:1;fill-rule:nonzero;stroke:#000000;stroke-width:1.085;stroke-linecap:round;stroke-linejoin:miter;stroke-miterlimit:4;stroke-dasharray:none;stroke-dashoffset:0;stroke-opacity:1;color-rendering:auto;image-rendering:auto;shape-rendering:auto;text-rendering:auto;enable-background:accumulate"
           id="path12623-4"
           cy="1115.9707"
           cx="265.93738"
           rx="20.293362"
           ry="20.766291" /></g><g
         id="g238"
         transform="matrix(0.26458333,0,0,0.26458333,21.231735,9.2418065)"
         clip-path="url(#clipPath416)"><ellipse
           fill="#8ad1ca"
           stroke="#000000"
           stroke-width="4"
           stroke-miterlimit="10"
           cx="235.675"
           cy="236.306"
           rx="163.136"
           ry="165.254"
           id="ellipse182" /><g
           id="g190">
	<path
   fill="#87c540"
   d="m 89.971,176.073 c 32.974,0 69.419,-6.678 79.832,30.045 1.736,8.346 0,16.693 5.208,23.37 5.204,5.007 17.356,8.346 22.559,11.685 17.356,8.346 22.563,15.022 39.918,16.692 -10.413,23.368 -32.974,21.699 -27.768,50.077 3.472,21.699 13.885,33.384 26.032,51.747 12.15,18.36 17.355,35.052 -8.677,36.722 -20.825,1.669 -36.444,0 -52.063,-10.016 C 140.301,366.363 107.326,346.333 93.443,306.272 86.501,286.242 83.03,266.21 83.03,244.51 c -1.735,-20.031 -5.207,-40.061 3.471,-60.092 -0.001,-3.339 1.734,-6.677 3.47,-8.345"
   id="path184" />
	<g
   id="g188">
		<path
   d="m 89.971,178.573 c 27.036,-0.068 65.184,-6.647 76.569,25.469 2.959,8.347 0.885,17.38 5.359,25.351 3.519,6.266 13.301,8.748 19.42,11.409 8.035,3.492 15.532,8.222 23.193,12.446 7.241,3.993 14.761,6.225 22.974,7.117 -0.72,-1.254 -1.439,-2.508 -2.158,-3.762 -4.207,9.07 -11.094,15.064 -18.305,21.668 -6.054,5.545 -9.891,11.885 -10.526,20.183 -0.88,11.502 3.637,23.992 8.751,34.079 5.716,11.275 13.847,21.154 20.534,31.838 3.768,6.019 11.302,17.837 5.519,24.714 -3.243,3.855 -9.608,4.466 -14.228,4.826 -7.105,0.555 -14.206,0.764 -21.317,0.222 -13.6,-1.037 -24.439,-6.934 -35.968,-13.657 -10.583,-6.171 -21.029,-12.588 -30.918,-19.83 -11.57,-8.474 -22.108,-18.459 -30.38,-30.213 -9.231,-13.116 -14.429,-28.288 -18.155,-43.763 -4.227,-17.556 -4.125,-35.247 -5.842,-53.085 -0.875,-9.094 -1.477,-18.186 -0.809,-27.314 0.346,-4.725 1.303,-9.352 2.581,-13.903 0.699,-2.491 1.654,-4.898 2.645,-7.284 1.115,-2.687 0.698,-4.851 2.829,-7.243 2.137,-2.398 -1.386,-5.948 -3.535,-3.535 -4.019,4.511 -5.003,11.11 -6.76,16.733 -2.263,7.245 -2.957,14.965 -3.081,22.516 -0.12,7.296 0.608,14.599 1.306,21.852 0.762,7.917 0.844,15.814 1.404,23.744 1.876,26.562 8.991,54.355 24.776,76.154 13.877,19.165 33.721,32.854 53.725,44.936 10.372,6.264 20.707,13.146 32.443,16.529 12.22,3.521 25.63,3.204 38.15,1.856 11.745,-1.265 20.073,-7.948 17.453,-20.353 -1.418,-6.713 -5.313,-13.007 -8.96,-18.699 -5.036,-7.857 -10.655,-15.321 -15.545,-23.275 -4.911,-7.987 -8.424,-16.502 -10.38,-25.675 -1.63,-7.643 -2.23,-15.473 2.043,-22.343 3.094,-4.974 8.271,-8.608 12.518,-12.528 5.157,-4.759 9.392,-10.246 12.35,-16.625 0.847,-1.823 -0.191,-3.548 -2.158,-3.762 -17.581,-1.91 -31.446,-13.746 -47.346,-20.464 -3.806,-1.608 -7.588,-3.242 -11.105,-5.425 -5.054,-3.138 -5.379,-9.743 -5.769,-15.073 -0.604,-8.262 -2.631,-15.642 -7.182,-22.634 -15.862,-24.372 -51.534,-18.257 -76.115,-18.195 -3.224,0.006 -3.224,5.006 0,4.998 z"
   id="path186" />
	</g>
</g><g
           id="g198">
	<path
   fill="#87c540"
   d="m 173.276,171.064 c 5.205,13.354 12.147,38.393 22.56,48.408 6.942,5.008 22.561,5.008 29.504,10.016 10.411,5.007 17.355,13.353 26.031,18.362 19.091,10.016 25.872,-11.384 15.459,-26.407 -10.411,-15.021 -31.067,-23.669 -20.669,-50.367 -0.802,2.06 35.718,16.337 39.048,19.31 10.59,9.459 12.106,21.75 24.437,30.765 1.636,6.039 8.041,16.255 9.879,24.498 2.635,11.813 -2.795,26.905 8.164,34.136 14.212,9.376 25.931,-68.944 29.04,-74.548 6.439,-11.604 2.866,-10.664 12.988,-1.482 10.263,9.312 10.133,36.76 29.094,32.552 -3.472,-13.353 -12.069,-46.88 -20.749,-55.227 -8.676,-6.677 -13.883,-8.345 -20.825,-16.691 -1.735,-1.669 -6.941,-8.346 -6.941,-11.685 -1.736,-5.007 6.941,-6.677 5.206,-10.015 -3.47,-10.016 -10.413,-15.024 -19.091,-20.031 C 326,115.98 327.734,115.98 319.057,105.966 308.645,94.281 289.555,85.935 273.935,80.927 244.43,70.911 209.721,77.589 181.952,90.942 c -17.354,6.677 -32.973,18.361 -46.857,31.716 -8.678,10.015 -38.181,23.369 -36.446,38.392 12.15,0 27.768,-5.007 41.652,-5.007 10.413,0 13.884,0 20.826,5.007 6.941,3.339 5.206,10.016 13.885,10.016"
   id="path192" />
	<g
   id="g196">
		<path
   d="m 170.865,171.729 c 3.756,9.759 6.806,19.779 10.958,29.388 3.393,7.852 7.724,18.803 16.192,22.37 4.885,2.058 10.132,2.982 15.274,4.165 5.54,1.274 10.179,3.446 15.053,6.326 9.663,5.708 17.116,15.815 28.388,18.535 6.951,1.678 13.795,-1.897 16.201,-8.646 2.845,-7.981 0.604,-16.808 -3.943,-23.686 -4.713,-7.13 -11.598,-12.556 -16.939,-19.181 -7.133,-8.847 -7.331,-18.895 -3.477,-29.26 -1.637,-0.222 -3.274,-0.443 -4.911,-0.665 -0.306,3.938 8.862,6.77 11.387,7.941 7.499,3.479 15.126,6.674 22.618,10.168 1.804,0.841 4.41,1.858 5.775,2.969 5.037,4.1 8.239,10.174 11.536,15.641 2.902,4.813 6.163,9.272 10.33,13.069 3.719,3.389 5.211,9.067 7.364,13.659 2.699,5.756 4.788,11.315 5.132,17.706 0.302,5.601 -0.104,11.156 0.664,16.735 0.786,5.719 5.604,15.135 12.692,13.985 4.276,-0.693 6.962,-5.336 8.783,-8.807 3.243,-6.182 5.323,-13.019 7.27,-19.693 3.036,-10.408 5.385,-21.01 7.718,-31.593 1.7,-7.711 3.175,-14.593 6.451,-21.133 0.476,-0.948 0.941,-1.895 1.485,-2.806 -0.806,1.349 -2.421,-0.755 -0.313,1.333 2.364,2.34 4.952,4.563 7.104,7.095 3.527,4.153 5.241,9.998 7.35,14.924 4.288,10.021 10.304,18.801 22.468,16.449 1.352,-0.261 2.067,-1.836 1.746,-3.075 -2.46,-9.462 -5.003,-18.9 -8.002,-28.208 -2.832,-8.791 -5.892,-18.451 -11.499,-25.928 -2.751,-3.668 -7.077,-5.998 -10.834,-8.509 -4.929,-3.294 -8.963,-7.059 -12.898,-11.472 -2.463,-2.762 -7.52,-8.749 -3.969,-12.129 2.185,-2.079 5.079,-3.914 3.893,-7.372 -3.962,-11.547 -13.178,-16.848 -22.795,-23.193 -8.236,-5.434 -12.972,-14.278 -20.55,-20.507 -9.607,-7.897 -21.318,-13.092 -32.892,-17.382 -12.688,-4.703 -25.544,-7.302 -39.097,-7.336 -17.282,-0.044 -34.534,4.04 -50.578,10.25 -16.482,6.38 -31.732,14.405 -45.575,25.446 -5.745,4.582 -10.791,9.845 -16.276,14.69 -4.799,4.239 -10.297,7.713 -15.433,11.523 -7.973,5.913 -19.407,14.287 -18.569,25.534 0.1,1.341 1.062,2.523 2.5,2.5 16.513,-0.262 32.288,-5.589 48.946,-4.9 5.853,0.242 12.748,3.233 16.321,8.004 3.151,4.208 5.537,6.649 11.097,6.912 3.225,0.152 3.21,-4.849 0,-5 -5.874,-0.277 -7.733,-7.004 -12.623,-9.674 -5.099,-2.784 -8.834,-4.85 -14.794,-5.241 -16.658,-1.093 -32.444,4.638 -48.946,4.9 0.833,0.833 1.667,1.667 2.5,2.5 -0.716,-9.613 10.379,-16.979 17.11,-21.971 7.89,-5.852 15.229,-11.59 22.433,-18.251 21.472,-19.855 48.561,-33.354 77.129,-39.514 28.612,-6.169 56.688,-0.641 82.169,13.295 5.571,3.047 10.797,6.689 15.374,11.097 3.68,3.544 6.52,7.857 9.952,11.625 7.294,8.007 18.48,10.768 24.801,19.969 1.085,1.58 3.936,5.373 2.274,6.937 -1.405,1.324 -2.809,2.396 -3.93,3.998 -2.188,3.127 -0.088,7.725 1.492,10.59 5.233,9.497 14.309,15.596 22.976,21.581 8.712,6.015 11.843,17.467 15.05,27.076 3.236,9.7 5.851,19.598 8.421,29.491 0.582,-1.025 1.164,-2.05 1.746,-3.075 -9.727,1.88 -13.772,-6.916 -16.961,-14.486 -1.496,-3.553 -2.912,-7.138 -4.685,-10.566 -2.074,-4.01 -5.038,-6.775 -8.216,-9.905 -1.9,-1.872 -3.626,-4.397 -6.442,-4.737 -2.837,-0.342 -4.364,4.173 -5.28,6.002 -2.234,4.459 -3.525,8.266 -4.635,13.132 -3.381,14.838 -6.371,29.779 -10.903,44.325 -1.895,6.084 -3.987,12.431 -7.64,17.718 -4.743,6.865 -9.21,-2.895 -10.095,-7.744 -1.203,-6.591 0.104,-13.438 -0.904,-20.072 -1.057,-6.958 -4.329,-13.301 -7.298,-19.605 -1.198,-2.546 -1.88,-5.673 -3.282,-8.068 -0.882,-1.505 -2.844,-2.454 -4.128,-3.624 -1.672,-1.523 -3.14,-3.297 -4.502,-5.094 -4.106,-5.415 -6.889,-11.711 -11.122,-17.046 -5.748,-7.243 -13.114,-9.889 -21.375,-13.555 -4.659,-2.067 -9.326,-4.118 -13.951,-6.263 -1.938,-0.899 -3.861,-1.827 -5.754,-2.815 -0.676,-0.353 -1.339,-0.729 -1.993,-1.122 -1.276,-0.766 -0.219,-0.575 -0.318,0.706 0.233,-2.998 -3.991,-3.138 -4.911,-0.665 -3.031,8.154 -4.108,16.673 -0.827,24.915 2.824,7.093 8.409,12.638 13.626,18.021 5.844,6.031 11.59,12.326 12.563,21.043 0.982,8.812 -4.273,15.46 -13.345,12.671 -4.989,-1.534 -9.278,-5.509 -13.238,-8.733 -4.186,-3.407 -8.387,-6.733 -13.043,-9.484 -8.453,-4.993 -17.465,-6.127 -26.729,-8.904 -9.316,-2.793 -13.457,-13.84 -16.924,-22.077 -3.79,-9.001 -6.642,-18.355 -10.147,-27.463 -1.145,-2.98 -5.981,-1.688 -4.821,1.326 z"
   id="path194" />
	</g>
</g><g
           id="g206">
	<path
   fill="#87c540"
   d="m 355.501,261.204 c -1.736,6.676 -1.736,15.022 -5.206,21.7 5.206,1.668 8.678,3.338 13.884,0 l -1.736,-1.671 c 0,-1.669 3.473,-5.007 3.473,-6.677 -1.736,-3.338 -5.206,-6.677 -8.679,-8.346"
   id="path200" />
	<g
   id="g204">
		<path
   d="m 353.09,260.539 c -1.694,7.025 -1.776,14.497 -4.954,21.104 -0.718,1.494 -0.125,3.143 1.494,3.673 5.763,1.885 10.305,2.9 15.811,-0.252 1.381,-0.791 1.664,-2.813 0.506,-3.927 -0.578,-0.558 -1.157,-1.114 -1.736,-1.671 0.215,0.811 0.429,1.621 0.644,2.433 0.526,-2.712 4.32,-4.923 3.473,-8.007 -1.158,-4.208 -6.213,-7.911 -9.828,-9.84 -2.844,-1.516 -5.369,2.801 -2.523,4.318 2.919,1.556 5.264,3.609 7.142,6.338 0.235,0.344 -1.891,3.092 -2.395,3.94 -1.597,2.69 -0.217,4.189 1.689,6.023 0.168,-1.309 0.337,-2.617 0.506,-3.927 -4.24,2.429 -7.652,1.156 -11.957,-0.252 0.498,1.225 0.996,2.449 1.494,3.673 3.402,-7.076 3.645,-14.78 5.458,-22.297 0.754,-3.133 -4.067,-4.462 -4.824,-1.329 z"
   id="path202" />
	</g>
</g><g
           id="g214">
	<path
   fill="#87c540"
   d="m 349.524,310.134 c -11.018,-1.694 -10.17,14.407 -13.56,21.187 -2.542,3.391 -4.237,5.085 -7.627,6.78 -6.78,4.237 -6.78,1.694 -11.018,9.322 -7.627,16.948 12.608,25.913 22.882,16.102 10.093,-9.639 16.654,-20.621 25.713,-36.149 5.933,-10.17 12.423,-7.919 3.101,-11.309 -5.085,-1.695 -12.712,-5.085 -17.797,-5.933"
   id="path208" />
	<g
   id="g212">
		<path
   d="m 349.524,307.634 c -7.345,-0.768 -10.801,4.894 -12.641,11.164 -1.008,3.437 -1.538,6.991 -2.703,10.386 -1.512,4.4 -7.21,7.065 -11.091,8.93 -13.615,6.543 -12.813,26.629 1.759,31.273 7.414,2.363 14.106,-1.024 19.232,-6.182 8.183,-8.233 14.35,-18.265 20.246,-28.183 2.809,-4.725 5.229,-9.484 9.474,-13.093 1.333,-1.134 3.355,-2.991 2.031,-4.946 -1.52,-2.244 -4.978,-2.923 -7.368,-3.747 -5.51,-1.9 -10.832,-4.385 -16.58,-5.514 -3.149,-0.618 -4.492,4.201 -1.33,4.822 7.007,1.375 14.399,4.215 20.919,7.128 0.662,-2.324 0.582,-3.022 -0.238,-2.095 -0.32,0.275 -0.643,0.548 -0.969,0.815 -0.986,0.82 -1.896,1.701 -2.78,2.63 -3.145,3.297 -5.183,7.592 -7.476,11.476 -4.687,7.936 -9.57,15.778 -15.515,22.845 -4.624,5.496 -9.588,10.94 -17.394,9.456 -6.999,-1.332 -10.075,-7.694 -8.311,-14.231 1.881,-6.969 7.611,-8.236 13.073,-11.606 5.226,-3.226 7.299,-8.206 8.624,-13.875 1.206,-5.153 2.139,-13.174 9.036,-12.453 3.208,0.335 3.175,-4.668 0.002,-5 z"
   id="path210" />
	</g>
</g></g></g></g></svg>
