<?xml version="1.0" encoding="UTF-8" standalone="no"?>
<!-- Created with Inkscape (http://www.inkscape.org/) -->

<svg
   width="100mm"
   height="100mm"
   viewBox="0 0 100 100"
   version="1.1"
   id="svg5"
   xml:space="preserve"
   inkscape:version="1.2.2 (b0a8486541, 2022-12-01)"
   sodipodi:docname="logo.svg"
   inkscape:export-filename="logo-plain.svg"
   inkscape:export-xdpi="96"
   inkscape:export-ydpi="96"
   xmlns:inkscape="http://www.inkscape.org/namespaces/inkscape"
   xmlns:sodipodi="http://sodipodi.sourceforge.net/DTD/sodipodi-0.dtd"
   xmlns="http://www.w3.org/2000/svg"
   xmlns:svg="http://www.w3.org/2000/svg"><sodipodi:namedview
     id="namedview7"
     pagecolor="#505050"
     bordercolor="#eeeeee"
     borderopacity="1"
     inkscape:showpageshadow="0"
     inkscape:pageopacity="0"
     inkscape:pagecheckerboard="true"
     inkscape:deskcolor="#505050"
     inkscape:document-units="mm"
     showgrid="false"
     inkscape:zoom="1.6994734"
     inkscape:cx="238.0149"
     inkscape:cy="149.75227"
     inkscape:window-width="1920"
     inkscape:window-height="997"
     inkscape:window-x="0"
     inkscape:window-y="0"
     inkscape:window-maximized="1"
     inkscape:current-layer="g10227" /><defs
     id="defs2"><clipPath
       clipPathUnits="userSpaceOnUse"
       id="clipPath416"><path
         style="fill:#ffffff;stroke:#ffffff;stroke-width:1.155;paint-order:stroke fill markers"
         id="path418"
         sodipodi:type="arc"
         sodipodi:cx="250.71526"
         sodipodi:cy="236.306"
         sodipodi:rx="226.8584"
         sodipodi:ry="226.8584"
         sodipodi:start="0.52359878"
         sodipodi:end="5.7595865"
         sodipodi:arc-type="slice"
         d="M 447.18039,349.7352 A 226.8584,226.8584 0 0 1 191.99998,455.43439 226.8584,226.8584 0 0 1 23.856857,236.306 226.8584,226.8584 0 0 1 191.99998,17.177615 226.8584,226.8584 0 0 1 447.18039,122.87679 L 250.71526,236.306 Z" /></clipPath></defs><g
     inkscape:label="Layer 1"
     inkscape:groupmode="layer"
     id="layer1"
     transform="translate(-39.895179,-27.511815)"><g
       id="g10227"
       transform="translate(-0.51084616,-0.20788282)"><g
         id="g10454"
         transform="matrix(1.0087293,0,0,1.0087293,-0.56593884,-0.67843856)"><g
           id="g442"
           transform="matrix(0.89945744,0,0,0.89945744,4.5220096,13.170643)"><g
             id="g238"
             transform="matrix(0.26458333,0,0,0.26458333,21.231735,9.2418065)"
             clip-path="url(#clipPath416)"><ellipse
               fill="#8ad1ca"
               stroke="#000000"
               stroke-width="4"
               stroke-miterlimit="10"
               cx="235.675"
               cy="236.306"
               rx="163.136"
               ry="165.254"
               id="ellipse182"
               style="stroke:#ffffff;stroke-width:2.22356;stroke-dasharray:none" /><g
               id="g190"
               style="stroke:#ffffff;stroke-width:2.22356;stroke-dasharray:none">
	<path
   fill="#87c540"
   d="m 89.971,176.073 c 32.974,0 69.419,-6.678 79.832,30.045 1.736,8.346 0,16.693 5.208,23.37 5.204,5.007 17.356,8.346 22.559,11.685 17.356,8.346 22.563,15.022 39.918,16.692 -10.413,23.368 -32.974,21.699 -27.768,50.077 3.472,21.699 13.885,33.384 26.032,51.747 12.15,18.36 17.355,35.052 -8.677,36.722 -20.825,1.669 -36.444,0 -52.063,-10.016 C 140.301,366.363 107.326,346.333 93.443,306.272 86.501,286.242 83.03,266.21 83.03,244.51 c -1.735,-20.031 -5.207,-40.061 3.471,-60.092 -0.001,-3.339 1.734,-6.677 3.47,-8.345"
   id="path184"
   style="stroke:#ffffff;stroke-width:2.22356;stroke-dasharray:none" />
	
</g><g
               id="g198"
               style="stroke:#ffffff;stroke-width:2.22356;stroke-dasharray:none">
	<path
   fill="#87c540"
   d="m 173.276,171.064 c 5.205,13.354 12.147,38.393 22.56,48.408 6.942,5.008 22.561,5.008 29.504,10.016 10.411,5.007 17.355,13.353 26.031,18.362 19.091,10.016 25.872,-11.384 15.459,-26.407 -10.411,-15.021 -31.067,-23.669 -20.669,-50.367 -0.802,2.06 35.718,16.337 39.048,19.31 10.59,9.459 12.106,21.75 24.437,30.765 1.636,6.039 8.041,16.255 9.879,24.498 2.635,11.813 -2.795,26.905 8.164,34.136 14.212,9.376 25.931,-68.944 29.04,-74.548 6.439,-11.604 2.866,-10.664 12.988,-1.482 10.263,9.312 10.133,36.76 29.094,32.552 -3.472,-13.353 -12.069,-46.88 -20.749,-55.227 -8.676,-6.677 -13.883,-8.345 -20.825,-16.691 -1.735,-1.669 -6.941,-8.346 -6.941,-11.685 -1.736,-5.007 6.941,-6.677 5.206,-10.015 -3.47,-10.016 -10.413,-15.024 -19.091,-20.031 C 326,115.98 327.734,115.98 319.057,105.966 308.645,94.281 289.555,85.935 273.935,80.927 244.43,70.911 209.721,77.589 181.952,90.942 c -17.354,6.677 -32.973,18.361 -46.857,31.716 -8.678,10.015 -38.181,23.369 -36.446,38.392 12.15,0 27.768,-5.007 41.652,-5.007 10.413,0 13.884,0 20.826,5.007 6.941,3.339 5.206,10.016 13.885,10.016"
   id="path192"
   style="stroke:#ffffff;stroke-width:2.22356;stroke-dasharray:none" />
	
</g><g
               id="g206">
	<path
   fill="#87c540"
   d="m 355.501,261.204 c -1.736,6.676 -1.736,15.022 -5.206,21.7 5.206,1.668 8.678,3.338 13.884,0 l -1.736,-1.671 c 0,-1.669 3.473,-5.007 3.473,-6.677 -1.736,-3.338 -5.206,-6.677 -8.679,-8.346"
   id="path200" />
	<g
   id="g204">
		<path
   d="m 353.09,260.539 c -1.694,7.025 -1.776,14.497 -4.954,21.104 -0.718,1.494 -0.125,3.143 1.494,3.673 5.763,1.885 10.305,2.9 15.811,-0.252 1.381,-0.791 1.664,-2.813 0.506,-3.927 -0.578,-0.558 -1.157,-1.114 -1.736,-1.671 0.215,0.811 0.429,1.621 0.644,2.433 0.526,-2.712 4.32,-4.923 3.473,-8.007 -1.158,-4.208 -6.213,-7.911 -9.828,-9.84 -2.844,-1.516 -5.369,2.801 -2.523,4.318 2.919,1.556 5.264,3.609 7.142,6.338 0.235,0.344 -1.891,3.092 -2.395,3.94 -1.597,2.69 -0.217,4.189 1.689,6.023 0.168,-1.309 0.337,-2.617 0.506,-3.927 -4.24,2.429 -7.652,1.156 -11.957,-0.252 0.498,1.225 0.996,2.449 1.494,3.673 3.402,-7.076 3.645,-14.78 5.458,-22.297 0.754,-3.133 -4.067,-4.462 -4.824,-1.329 z"
   id="path202" />
	</g>
</g><g
               id="g214"
               style="stroke:#ffffff;stroke-width:2.22356;stroke-dasharray:none">
	<path
   fill="#87c540"
   d="m 349.524,310.134 c -11.018,-1.694 -10.17,14.407 -13.56,21.187 -2.542,3.391 -4.237,5.085 -7.627,6.78 -6.78,4.237 -6.78,1.694 -11.018,9.322 -7.627,16.948 12.608,25.913 22.882,16.102 10.093,-9.639 16.654,-20.621 25.713,-36.149 5.933,-10.17 12.423,-7.919 3.101,-11.309 -5.085,-1.695 -12.712,-5.085 -17.797,-5.933"
   id="path208"
   style="stroke:#ffffff;stroke-width:2.22356;stroke-dasharray:none" />
	
</g></g></g><g
           id="g10202"
           transform="matrix(0.99497951,0,0,0.99497951,-0.18174494,0.57887551)"
           style="stroke:#ffffff;stroke-width:0.531837;stroke-dasharray:none"><path
             style="fill:#87c540;fill-opacity:1;stroke:#ffffff;stroke-width:2.01009;stroke-dasharray:none;paint-order:stroke fill markers"
             d="m 222.07905,213.19652 c -1.25119,-0.16922 -1.65478,-0.60647 -1.81916,-1.97081 -0.0654,-0.54322 -0.0925,-5.0289 -0.0601,-9.96817 l 0.0589,-8.98049 2.52172,-6.9008 c 2.98439,-8.16695 4.15447,-11.56047 4.95446,-14.36912 0.66935,-2.34998 0.60456,-3.01244 -0.37523,-3.83688 -0.80496,-0.67733 -0.95605,-1.10364 -1.08457,-3.0602 l -0.1182,-1.79948 59.44155,0.007 c 58.80873,0.007 83.76794,0.16843 85.04883,0.54982 0.35802,0.10661 0.97291,0.50822 1.36642,0.89247 0.98476,0.9616 1.63458,2.95494 6.20104,19.02214 l 1.54641,5.44106 -0.082,10.44023 c -0.0575,7.31993 -0.15054,10.70634 -0.31132,11.33061 -0.31588,1.22655 -0.91873,2.05256 -1.88888,2.58814 -0.76234,0.42086 -1.0954,0.46279 -4.62472,0.58223 -2.09177,0.0708 -6.94377,0.0794 -10.78223,0.0191 l -6.979,-0.10957 -0.23501,-1.15334 c -0.12925,-0.63434 -0.50348,-1.82544 -0.83162,-2.64689 -1.04238,-2.60945 -1.84359,-3.84376 -3.67311,-5.65862 -1.97459,-1.95878 -3.98962,-3.14231 -6.11774,-3.59329 -1.73754,-0.36821 -6.38083,-0.36013 -7.96745,0.0139 -4.70995,1.11023 -9.49728,6.60764 -10.43423,11.98191 l -0.24434,1.40146 -13.71855,-0.12515 c -7.54521,-0.0688 -20.14781,-0.1252 -28.00578,-0.12528 l -14.28723,-1.5e-4 -0.2978,-1.6543 c -0.38891,-2.16044 -0.90968,-3.49731 -2.03214,-5.21675 -1.55033,-2.37486 -4.09701,-4.56417 -6.51471,-5.60052 -2.3084,-0.98949 -7.21421,-1.34338 -9.70006,-0.69971 -3.1774,0.82272 -6.31845,3.29635 -8.52755,6.71557 -0.96673,1.4963 -1.49852,2.88765 -1.8713,4.89594 l -0.28951,1.55977 -3.14242,3.8e-4 c -1.72832,1.6e-4 -5.60968,0.0374 -8.62524,0.0826 -3.01555,0.0453 -5.93969,0.0205 -6.49809,-0.055 z m 22.37938,-23.46013 c 1.45579,-0.0862 2.87839,-0.26427 3.16134,-0.39567 0.96718,-0.44917 0.99805,-0.79102 0.99805,-11.05433 0,-8.61044 -0.0292,-9.50652 -0.32757,-10.05186 -0.57641,-1.0535 -0.9736,-1.10286 -8.8753,-1.10286 -8.14063,0 -7.77282,-0.0732 -8.64018,1.71875 -1.83849,3.79819 -6.50125,16.80159 -6.5097,18.1541 -0.006,0.94309 0.65236,2.09631 1.35827,2.37959 0.27279,0.10946 1.47439,0.26014 2.67021,0.33484 3.08381,0.19261 13.02577,0.20334 16.16488,0.0174 z m 24.10553,-0.0118 c 3.28277,-0.2508 4.10449,-0.46815 4.55365,-1.20442 0.56696,-0.92939 0.63273,-1.73907 0.27682,-3.408 -0.77207,-3.6205 -4.359,-15.26257 -5.23306,-16.98492 -0.229,-0.45126 -0.54501,-0.75821 -0.87588,-0.85078 -0.28469,-0.0797 -3.41029,-0.14483 -6.94577,-0.14483 -5.92079,0 -6.48484,0.0282 -7.14655,0.35688 -1.58505,0.78738 -1.82769,2.35972 -1.82672,11.83769 9.4e-4,8.46268 0.21051,9.56987 1.89818,10.02431 1.88889,0.50863 10.71399,0.7244 15.29933,0.37407 z m 25.2657,0.0125 c 1.36598,-0.0882 2.72406,-0.27589 3.01795,-0.41721 0.72614,-0.34916 1.39924,-1.40101 1.39924,-2.18658 0,-1.58403 -3.94151,-15.35081 -5.32952,-18.61477 -0.60117,-1.4137 -0.41181,-1.38689 -9.79552,-1.38689 -8.93778,0 -9.43691,0.0492 -10.41443,1.02674 -1.09515,1.09515 -0.95176,2.36013 1.06265,9.37462 2.38272,8.29695 3.43159,11.14012 4.32585,11.72607 0.33921,0.22226 1.10825,0.36842 2.43023,0.46187 2.76288,0.19532 10.38373,0.20457 13.30355,0.0162 z m 28.22525,-0.83896 c 0.9103,-1.59103 0.84603,-2.04305 -1.42716,-10.03808 -2.38628,-8.39273 -3.39353,-11.14567 -4.20686,-11.49788 -0.73592,-0.31868 -15.50033,-0.42753 -17.27977,-0.12738 -1.90538,0.32138 -2.40704,0.83886 -2.40605,2.48193 10e-4,1.87869 1.91697,9.58969 3.91418,15.75403 1.0002,3.0871 1.23379,3.59284 1.80621,3.91053 0.64735,0.35926 3.13343,0.4685 11.42248,0.50187 l 7.59591,0.0306 0.58106,-1.01559 z m 23.42893,0.65689 c 1.31344,-0.2628 1.44788,-0.50814 1.4392,-2.62622 -0.006,-1.49401 -0.13997,-2.34702 -0.71828,-4.57759 -0.92494,-3.56752 -1.81366,-6.60827 -2.95759,-10.11939 -1.26506,-3.88288 -1.58516,-4.58462 -2.21919,-4.86504 -0.39076,-0.17282 -2.7561,-0.23278 -9.22245,-0.23379 -7.92579,-0.001 -8.75051,0.028 -9.30158,0.32932 -0.82278,0.44992 -1.56954,1.47569 -1.56954,2.15595 0,1.13277 4.36494,16.39291 5.33188,18.64062 0.21619,0.50253 0.57255,1.01026 0.79193,1.12828 0.21937,0.11803 1.16457,0.27858 2.10043,0.35679 2.16433,0.18086 15.23289,0.0296 16.32519,-0.18893 z m 21.88112,0.1827 c 2.73728,-0.17668 3.48517,-0.42846 3.95153,-1.33031 0.6718,-1.2991 0.21349,-3.92298 -2.08155,-11.91715 -1.69497,-5.90397 -2.44568,-8.00999 -3.12713,-8.77278 l -0.52338,-0.58584 h -9.04333 c -9.82079,0 -9.71643,-0.0105 -10.50542,1.05622 -0.69157,0.93498 -0.63461,1.7532 0.38853,5.58193 2.09348,7.83407 4.32796,14.66319 5.02626,15.36149 0.40241,0.4024 0.70356,0.48293 2.22664,0.59541 2.56745,0.1896 10.81815,0.19625 13.68785,0.011 z"
             id="path3473"
             transform="matrix(0.26458333,0,0,0.26458333,39.895179,27.511815)" /><path
             style="fill:#87c540;fill-opacity:1;stroke:#ffffff;stroke-width:2.01009;stroke-dasharray:none;paint-order:stroke fill markers"
             d="m 338.25902,223.83422 c -1.67411,-0.40521 -3.29078,-1.34836 -4.66244,-2.72002 -4.05257,-4.05257 -4.04777,-10.36013 0.011,-14.41888 2.50432,-2.50432 5.95463,-3.51656 9.17117,-2.69061 1.92985,0.49556 3.10723,1.18749 4.62922,2.72057 2.09944,2.11474 3.02028,4.30976 3.02028,7.19948 0,6.48893 -6.02644,11.3963 -12.16921,9.90946 z"
             id="path3475"
             transform="matrix(0.26458333,0,0,0.26458333,39.895179,27.511815)" /><path
             style="fill:#87c540;fill-opacity:1;stroke:#ffffff;stroke-width:2.01009;stroke-dasharray:none;paint-order:stroke fill markers"
             d="m 252.64139,223.84056 c -3.53125,-0.85609 -6.47909,-3.80101 -7.4132,-7.40586 -1.78484,-6.88794 4.16468,-13.64688 11.07155,-12.5778 3.8571,0.59703 7.18863,3.66554 8.20143,7.55393 1.17835,4.52397 -1.10547,9.54512 -5.273,11.59308 -2.31018,1.13525 -4.30824,1.38904 -6.58678,0.83665 z"
             id="path3477"
             transform="matrix(0.26458333,0,0,0.26458333,39.895179,27.511815)" /></g></g></g></g></svg>
